<svg width="70" height="70" viewBox="0 0 70 70" fill="none" xmlns="http://www.w3.org/2000/svg">
<circle cx="35" cy="35" r="34.5" fill="white" stroke="white"/>
<path d="M35 21C26.7155 21 20 26.3936 20 33.0472C20 37.3782 22.8457 41.1731 27.1157 43.2968C26.8018 44.4873 25.9796 47.608 25.8149 48.2759C25.6121 49.1048 26.1141 49.0938 26.4428 48.8704C26.7008 48.6959 30.5535 46.0354 32.2157 44.8867C33.1179 45.0225 34.0481 45.0944 35 45.0944C43.2845 45.0944 50 39.7 50 33.0472C50 26.3944 43.2837 21 35 21Z" fill="#391B1B"/>
<path d="M28.9799 29.4375H24.5089C24.0883 29.4375 23.7485 29.7781 23.7485 30.1979C23.7485 30.6176 24.0891 30.9582 24.5089 30.9582H25.9623V36.3139C25.9623 36.5088 26.0415 36.7004 26.1809 36.839C26.3171 36.9768 26.508 37.056 26.7036 37.056H26.866C27.0608 37.056 27.2509 36.9768 27.3879 36.839C27.5273 36.7004 27.6065 36.5095 27.6065 36.3139V30.9582H28.9791C29.3997 30.9582 29.7402 30.6176 29.7402 30.1979C29.7402 29.7781 29.3997 29.4375 28.9791 29.4375H28.9799Z" fill="#FAE300"/>
<path d="M39.7239 35.6251H37.6449V30.1554C37.6449 29.6992 37.2758 29.3301 36.8204 29.3301C36.3649 29.3301 35.9958 29.6992 35.9958 30.1554V36.0513C35.9958 36.0972 36.0014 36.14 36.0085 36.1835C36.0006 36.2263 35.9958 36.2706 35.9958 36.315C35.9958 36.6968 36.3039 37.0057 36.6857 37.0057H39.7239C40.1065 37.0057 40.4138 36.6968 40.4138 36.315C40.4138 35.9332 40.1057 35.6251 39.7239 35.6251V35.6251Z" fill="#FAE300"/>
<path d="M46.3679 35.8782L44.0512 32.8352L46.1446 30.7411C46.4281 30.4583 46.4281 29.9981 46.1446 29.7146C45.861 29.431 45.4016 29.431 45.1173 29.7146L42.5258 32.3061V30.1573C42.5258 29.7011 42.1567 29.332 41.7013 29.332C41.2459 29.332 40.876 29.7011 40.876 30.1573V36.2346C40.876 36.6908 41.2451 37.0599 41.7013 37.0599C42.1575 37.0599 42.5258 36.6916 42.5258 36.2346V34.3598L42.997 33.8894L45.1886 36.7652C45.4325 37.0908 45.8959 37.1581 46.2214 36.9118C46.5469 36.667 46.6127 36.2045 46.3679 35.8782V35.8782Z" fill="#FAE300"/>
<path d="M35.3781 36.0742L33.1501 29.9788C33.1501 29.9788 33.1445 29.974 33.1429 29.9716C33.0004 29.6002 32.5893 29.3301 32.0991 29.3301C31.5549 29.3301 31.1051 29.6627 31.0156 30.0976C31.0005 30.13 30.9855 30.1625 30.9728 30.1974L28.782 36.0742C28.6466 36.4599 28.8493 36.8813 29.2335 37.0167C29.6184 37.1522 30.0406 36.9494 30.176 36.5645L30.5554 35.4826H33.6047L33.9833 36.5645C34.1187 36.9494 34.5409 37.1522 34.9258 37.0167C35.3107 36.8813 35.5135 36.4599 35.3781 36.0742ZM31.0393 34.1005L32.0642 31.1763C32.0761 31.1763 32.0856 31.1795 32.0975 31.1795L33.1216 34.1005H31.0401H31.0393Z" fill="#FAE300"/>
</svg>
