<svg width="70" height="70" viewBox="0 0 70 70" fill="none" xmlns="http://www.w3.org/2000/svg">
<circle cx="35" cy="35" r="34.5" fill="white" stroke="white"/>
<path d="M17.7868 43.3366C21.2908 43.3366 23.1388 41.4406 23.1388 39.0886C23.1388 36.5926 21.1708 35.7046 19.3948 35.0326C17.9788 34.5046 16.6588 34.1446 16.6588 33.1606C16.6588 32.3926 17.2348 31.8646 18.4348 31.8646C19.4428 31.8646 20.3788 32.3446 21.3388 33.0166L22.9228 30.8806C21.7948 30.0406 20.3068 29.2246 18.3388 29.2246C15.3148 29.2246 13.3468 30.9286 13.3468 33.3526C13.3468 35.5846 15.3148 36.6166 17.0188 37.2646C18.4348 37.8166 19.8268 38.2726 19.8268 39.2806C19.8268 40.1206 19.2268 40.6966 17.8828 40.6966C16.6348 40.6966 15.4828 40.1686 14.2828 39.2326L12.6748 41.4406C13.9948 42.5446 15.9868 43.3366 17.7868 43.3366Z" fill="#2563EB"/>
<path d="M25.8296 43.0006H29.3336V33.7606C30.2936 32.7526 31.1576 32.2486 31.9256 32.2486C33.1976 32.2486 33.7976 32.9926 33.7976 35.0566V43.0006H37.3256V33.7606C38.2856 32.7526 39.1496 32.2486 39.9176 32.2486C41.1896 32.2486 41.7896 32.9926 41.7896 35.0566V43.0006H45.3176V34.6246C45.3176 31.2406 43.9976 29.2246 41.1416 29.2246C39.3896 29.2246 38.0936 30.2806 36.8696 31.5766C36.2216 30.0886 35.0936 29.2246 33.1736 29.2246C31.4216 29.2246 30.1736 30.1846 29.0456 31.3606H28.9496L28.7096 29.5606H25.8296V43.0006Z" fill="#2563EB"/>
<path d="M52.8024 43.3366C56.3064 43.3366 58.1544 41.4406 58.1544 39.0886C58.1544 36.5926 56.1864 35.7046 54.4104 35.0326C52.9944 34.5046 51.6744 34.1446 51.6744 33.1606C51.6744 32.3926 52.2504 31.8646 53.4504 31.8646C54.4584 31.8646 55.3944 32.3446 56.3544 33.0166L57.9384 30.8806C56.8104 30.0406 55.3224 29.2246 53.3544 29.2246C50.3304 29.2246 48.3624 30.9286 48.3624 33.3526C48.3624 35.5846 50.3304 36.6166 52.0344 37.2646C53.4504 37.8166 54.8424 38.2726 54.8424 39.2806C54.8424 40.1206 54.2424 40.6966 52.8984 40.6966C51.6504 40.6966 50.4984 40.1686 49.2984 39.2326L47.6904 41.4406C49.0104 42.5446 51.0024 43.3366 52.8024 43.3366Z" fill="#2563EB"/>
</svg>
