<svg width="24" height="24" viewBox="0 0 24 24" fill="none" xmlns="http://www.w3.org/2000/svg">
    <g filter="url(#mf4eu6qoya)">
        <path d="M6 20.25a.745.745 0 0 1-.75-.75v-15c0-.274.146-.525.386-.656a.757.757 0 0 1 .761.018l12 7.5a.759.759 0 0 1 .353.638.759.759 0 0 1-.352.637l-12 7.5A.75.75 0 0 1 6 20.25zm.75-14.396v12.292L16.586 12 6.75 5.854z" fill="#fff"/>
    </g>
    <defs>
        <filter id="mf4eu6qoya" x="5.25" y="2.75" width="17.5" height="20.5" filterUnits="userSpaceOnUse" color-interpolation-filters="sRGB">
            <feFlood flood-opacity="0" result="BackgroundImageFix"/>
            <feColorMatrix in="SourceAlpha" values="0 0 0 0 0 0 0 0 0 0 0 0 0 0 0 0 0 0 127 0" result="hardAlpha"/>
            <feOffset dx="2" dy="1"/>
            <feGaussianBlur stdDeviation="1"/>
            <feComposite in2="hardAlpha" operator="out"/>
            <feColorMatrix values="0 0 0 0 0 0 0 0 0 0 0 0 0 0 0 0 0 0 0.2 0"/>
            <feBlend in2="BackgroundImageFix" result="effect1_dropShadow_852_19940"/>
            <feBlend in="SourceGraphic" in2="effect1_dropShadow_852_19940" result="shape"/>
        </filter>
    </defs>
</svg>
