<svg width="70" height="70" viewBox="0 0 70 70" fill="none" xmlns="http://www.w3.org/2000/svg">
<circle cx="35" cy="35" r="34.5" fill="white" stroke="white"/>
<path d="M48.3334 33.6467V24.3333C48.3334 23.6 47.7334 23 47.0001 23H23.0001C22.2667 23 21.6667 23.6 21.6667 24.3333V33.6467V45.6667C21.6667 46.4 22.2667 47 23.0001 47H47.0001C47.7334 47 48.3334 46.4 48.3334 45.6667V33.6467ZM45.6667 25.6667V32.6L35.0001 34.9733L24.3334 32.6V25.6667H45.6667V25.6667ZM24.3334 44.3333V35.3267L34.4201 37.5667C34.6067 37.6067 34.8067 37.6267 35.0001 37.6267C35.1934 37.6267 35.3867 37.6067 35.5801 37.5667L45.6667 35.3267V44.3333H24.3334Z" fill="#E93F3F"/>
</svg>
