<svg width="45" height="46" viewBox="0 0 45 46" fill="none" xmlns="http://www.w3.org/2000/svg">
    <path d="m18.427 9.875-3.75 3.75H7.5v22.5h30v-22.5h-7.177l-3.75-3.75h-8.146zm-1.552-3.75h11.25l3.75 3.75h7.5a1.875 1.875 0 0 1 1.875 1.875V38a1.875 1.875 0 0 1-1.875 1.875H5.625A1.875 1.875 0 0 1 3.75 38V11.75a1.875 1.875 0 0 1 1.875-1.875h7.5l3.75-3.75zM22.5 34.25a10.312 10.312 0 1 1 0-20.625 10.312 10.312 0 0 1 0 20.625zm0-3.75a6.563 6.563 0 1 0 0-13.125 6.563 6.563 0 0 0 0 13.125z" fill="#fff"/>
</svg>
