<svg width="24" height="24" viewBox="0 0 24 24" fill="none" xmlns="http://www.w3.org/2000/svg">
    <path d="M16 6c.55 0 1-.45 1-1V3c0-.55-.45-1-1-1H4c-.55 0-1 .45-1 1v17.995C3 21.55 3.45 22 4 22h12c.55 0 1-.45 1-1v-2c0-.55-.45-1-1-1s-1 .45-1 1v1H5V4h10v1c0 .55.45 1 1 1z" fill="#fff"/>
    <path d="M20.88 12.471c.015-.03.035-.06.05-.09.015-.035.02-.07.03-.105.01-.03.02-.054.025-.085a.86.86 0 0 0 .02-.194.789.789 0 0 0-.02-.19c-.005-.035-.015-.06-.025-.09l-.03-.1c-.015-.035-.035-.065-.05-.095-.015-.025-.025-.05-.04-.075a1.21 1.21 0 0 0-.125-.155l-3.002-2.997a1 1 0 1 0-1.416 1.414l1.296 1.294h-5.588c-.55 0-1 .45-1 .999 0 .55.45.999 1 .999h5.588l-1.296 1.293a1 1 0 0 0 .706 1.709c.255 0 .51-.1.705-.295l3.002-2.997s.005-.01.01-.01c.04-.045.08-.09.115-.14l.045-.08v-.01z" fill="#fff"/>
</svg>
