<svg width="24" height="24" viewBox="0 0 24 24" fill="none" xmlns="http://www.w3.org/2000/svg">
    <g filter="url(#6qbtrrvpha)" fill="#fff">
        <path d="M7.5 20.25a.752.752 0 0 1-.75-.75v-15c0-.412.338-.75.75-.75s.75.338.75.75v15c0 .413-.338.75-.75.75zM16.5 20.25a.752.752 0 0 1-.75-.75v-15c0-.412.337-.75.75-.75s.75.338.75.75v15c0 .413-.337.75-.75.75z"/>
    </g>
    <defs>
        <filter id="6qbtrrvpha" x="6.75" y="2.75" width="14.5" height="20.5" filterUnits="userSpaceOnUse" color-interpolation-filters="sRGB">
            <feFlood flood-opacity="0" result="BackgroundImageFix"/>
            <feColorMatrix in="SourceAlpha" values="0 0 0 0 0 0 0 0 0 0 0 0 0 0 0 0 0 0 127 0" result="hardAlpha"/>
            <feOffset dx="2" dy="1"/>
            <feGaussianBlur stdDeviation="1"/>
            <feComposite in2="hardAlpha" operator="out"/>
            <feColorMatrix values="0 0 0 0 0 0 0 0 0 0 0 0 0 0 0 0 0 0 0.2 0"/>
            <feBlend in2="BackgroundImageFix" result="effect1_dropShadow_852_19945"/>
            <feBlend in="SourceGraphic" in2="effect1_dropShadow_852_19945" result="shape"/>
        </filter>
    </defs>
</svg>
