<svg width="70" height="70" viewBox="0 0 70 70" fill="none" xmlns="http://www.w3.org/2000/svg">
<circle cx="35" cy="35" r="34.5" fill="white" stroke="white"/>
<path d="M51 32.7759C51 25.7315 44.0474 20 35.5008 20C26.9541 20 20 25.7315 20 32.7759C20 39.0912 25.5139 44.3793 32.9621 45.3797C33.467 45.4902 34.1538 45.7174 34.3278 46.1561C34.4847 46.5538 34.4303 47.1771 34.3775 47.5795C34.3775 47.5795 34.1957 48.6905 34.1569 48.9272C34.0901 49.3249 33.8461 50.4831 35.4992 49.7762C37.1539 49.0676 44.4249 44.4376 47.6767 40.6361C49.9233 38.1349 50.9984 35.5958 50.9984 32.7759" fill="#48B648"/>
<path d="M32.6434 30H31.3566C31.1599 30 31 30.1286 31 30.2868V36.7132C31 36.8714 31.1599 37 31.3566 37H32.6434C32.8401 37 33 36.8714 33 36.7132V30.2868C33 30.1286 32.8401 30 32.6434 30Z" fill="white"/>
<path d="M39.7186 30H38.7031C38.5479 30 38.4217 30.1286 38.4217 30.2867V34.103L35.5319 30.1271C35.5247 30.1168 35.5174 30.1079 35.5102 30.0976H35.5087C35.5029 30.0887 35.4971 30.0828 35.4913 30.0783C35.4898 30.0769 35.4884 30.0754 35.4855 30.0739C35.4811 30.0695 35.4753 30.065 35.4695 30.0606C35.4666 30.0591 35.4652 30.0562 35.4623 30.0547C35.4579 30.0517 35.4521 30.0488 35.4478 30.0443C35.4449 30.0429 35.442 30.0414 35.4391 30.0399C35.4347 30.037 35.4289 30.034 35.4246 30.031C35.4217 30.031 35.4188 30.0281 35.4159 30.0266C35.4101 30.0236 35.4057 30.0222 35.3999 30.0192C35.397 30.0192 35.3941 30.0163 35.3912 30.0163C35.3854 30.0133 35.3796 30.0118 35.3738 30.0103C35.3709 30.0103 35.368 30.0089 35.3636 30.0074C35.3578 30.0074 35.3535 30.0044 35.3477 30.0044C35.3433 30.0044 35.339 30.0044 35.3361 30.003C35.3317 30.003 35.3259 30.0015 35.3216 30.0015C35.3172 30.0015 35.3114 30.0015 35.3071 30.0015C35.3027 30.0015 35.2998 30.0015 35.2969 30.0015H34.2814C34.1262 30.0015 34 30.1301 34 30.2882V36.7133C34 36.8714 34.1262 37 34.2814 37H35.2969C35.4536 37 35.5798 36.8714 35.5798 36.7133V32.897L38.4724 36.8788C38.4927 36.9069 38.5174 36.9305 38.5435 36.9497C38.5435 36.9497 38.5464 36.9497 38.5464 36.9527C38.5522 36.9557 38.558 36.9601 38.5638 36.963C38.5667 36.9645 38.5696 36.966 38.5725 36.9675C38.5769 36.9704 38.5812 36.9719 38.5856 36.9734C38.5899 36.9749 38.5943 36.9778 38.5986 36.9793C38.6015 36.9793 38.6044 36.9823 38.6073 36.9823C38.6146 36.9837 38.6204 36.9867 38.6262 36.9882H38.6306C38.6538 36.9956 38.6784 36.9985 38.7031 36.9985H39.7186C39.8738 36.9985 40 36.8699 40 36.7118V30.2867C40 30.1286 39.8738 30 39.7186 30" fill="white"/>
<path d="M29.6954 35.3912H26.7085V30.2869C26.7085 30.1286 26.5719 30 26.4039 30H25.3046C25.1366 30 25 30.1286 25 30.2869V36.7131C25 36.79 25.033 36.8595 25.0848 36.9113C25.0848 36.9113 25.0879 36.9142 25.0895 36.9157L25.0942 36.9202C25.1492 36.9689 25.223 37 25.3046 37H29.6954C29.8634 37 30 36.8714 30 36.7131V35.6781C30 35.5199 29.8634 35.3912 29.6954 35.3912" fill="white"/>
<path d="M45.6954 31.6088C45.8634 31.6088 46 31.4801 46 31.3219V30.2869C46 30.1286 45.8634 30 45.6954 30H41.3046C41.223 30 41.1476 30.0311 41.0927 30.0813C41.0927 30.0813 41.0895 30.0828 41.0895 30.0843C41.0879 30.0858 41.0848 30.0872 41.0848 30.0887C41.033 30.1405 41 30.21 41 30.2869V36.7146C41 36.7915 41.033 36.861 41.0848 36.9128C41.0848 36.9128 41.0879 36.9157 41.0895 36.9172C41.0895 36.9172 41.0926 36.9202 41.0942 36.9202C41.1492 36.9704 41.223 37 41.3046 37H45.6954C45.8634 37 46 36.8714 46 36.7131V35.6781C46 35.5199 45.8634 35.3912 45.6954 35.3912H42.7101V34.3044H45.6954C45.8634 34.3044 46 34.1757 46 34.0175V32.9825C46 32.8242 45.8634 32.6941 45.6954 32.6941H42.7101V31.6088H45.6954V31.6088Z" fill="white"/>
</svg>
