<svg width="26" height="26" viewBox="0 0 26 26" fill="none" xmlns="http://www.w3.org/2000/svg">
    <path opacity=".3" d="M26 13c0 7.18-5.82 13-13 13S0 20.18 0 13 5.82 0 13 0s13 5.82 13 13zM4.054 13a8.946 8.946 0 1 0 17.892 0 8.946 8.946 0 0 0-17.892 0z" fill="#fff"/>
    <path d="M23.973 13c1.12 0 2.043-.913 1.87-2.019A12.994 12.994 0 0 0 17.974.99a13 13 0 0 0-2.956-.832C13.913-.016 13 .908 13 2.027c0 1.12.919 2.004 2.01 2.255a8.946 8.946 0 0 1 6.708 6.709C21.969 12.08 22.854 13 23.973 13z" fill="#fff"/>
</svg>
