<svg width="60" height="60" viewBox="0 0 60 60" fill="none" xmlns="http://www.w3.org/2000/svg">
    <path opacity=".3" d="M60 30c0 16.569-13.431 30-30 30C13.431 60 0 46.569 0 30 0 13.431 13.431 0 30 0c16.569 0 30 13.431 30 30zM9.355 30c0 11.402 9.243 20.645 20.645 20.645S50.645 41.402 50.645 30 41.402 9.355 30 9.355 9.355 18.598 9.355 30z" fill="#fff"/>
    <path d="M55.323 30c2.583 0 4.714-2.107 4.313-4.658A29.997 29.997 0 0 0 34.658.364C32.106-.037 30 2.094 30 4.677c0 2.583 2.12 4.625 4.637 5.205a20.636 20.636 0 0 1 9.962 5.52 20.645 20.645 0 0 1 5.519 9.96C50.698 27.88 52.74 30 55.323 30z" fill="#fff"/>
</svg>
