<svg width="26" height="25" viewBox="0 0 26 25" fill="none" xmlns="http://www.w3.org/2000/svg">
    <path opacity=".3" d="M25.5 12.5C25.5 19.404 19.904 25 13 25S.5 19.404.5 12.5 6.096 0 13 0s12.5 5.596 12.5 12.5zm-21.102 0a8.602 8.602 0 1 0 17.204 0 8.602 8.602 0 0 0-17.204 0z" fill="#fff"/>
    <path d="M23.551 12.5c1.077 0 1.965-.878 1.797-1.941A12.498 12.498 0 0 0 14.941.152C13.878-.016 13 .872 13 1.949c0 1.076.883 1.927 1.932 2.169a8.602 8.602 0 0 1 6.45 6.45c.242 1.049 1.093 1.932 2.17 1.932z" fill="#2563EB"/>
</svg>
