<svg width="80" height="38" viewBox="0 0 80 38" fill="none" xmlns="http://www.w3.org/2000/svg">
    <path d="M37.927 11.398C34.945 8.605 31.128 7 26.97 7c-4.131 0-7.923 1.583-10.898 4.342a.22.22 0 0 0-.05.069.247.247 0 0 0-.014.173c.008.029.02.055.037.078l.885 1.203c.068.093.191.107.272.03 2.67-2.47 6.066-3.947 9.768-3.947 3.728 0 7.146 1.5 9.823 4.001.084.079.207.065.276-.03l.884-1.204a.243.243 0 0 0-.027-.317z" fill="#051A2E"/>
    <path d="M37.927 11.398C34.945 8.605 31.128 7 26.97 7c-4.131 0-7.923 1.583-10.898 4.342a.22.22 0 0 0-.05.069.247.247 0 0 0-.014.173c.008.029.02.055.037.078l.885 1.203c.068.093.191.107.272.03 2.67-2.47 6.066-3.947 9.768-3.947 3.728 0 7.146 1.5 9.823 4.001.084.079.207.065.276-.03l.884-1.204a.243.243 0 0 0-.027-.317zM15.686 16.373h3.941L14.354 29.68h-4.08L5 16.373h3.941l3.359 9.315 3.386-9.315zM52.64 16c1.592 0 2.86.497 3.803 1.49.963.994 1.444 2.325 1.444 3.993v8.198h-3.58v-7.959c0-.798-.204-1.42-.611-1.863-.407-.443-.981-.665-1.721-.665-.814 0-1.453.257-1.915.772-.445.514-.667 1.26-.667 2.235v7.48h-3.58v-7.959c0-.798-.204-1.42-.61-1.863-.408-.443-.981-.665-1.722-.665-.795 0-1.434.257-1.915.772-.462.514-.694 1.26-.694 2.235v7.48h-3.58V16.373h3.58v1.41C41.705 16.594 42.992 16 44.73 16c1.703 0 2.961.639 3.775 1.916C49.43 16.64 50.81 16 52.641 16zM73.168 18.981v-2.608H75V29.68h-1.832v-2.609C71.891 29.024 70.022 30 67.561 30c-1.98 0-3.673-.674-5.079-2.023-1.388-1.348-2.082-2.998-2.082-4.95s.694-3.602 2.082-4.951c1.406-1.349 3.1-2.023 5.08-2.023 2.46 0 4.33.976 5.606 2.928zm-9.354 7.798c1.055 1.012 2.35 1.518 3.886 1.518s2.831-.506 3.886-1.518c1.055-1.046 1.582-2.297 1.582-3.752 0-1.473-.527-2.715-1.582-3.727-1.055-1.029-2.35-1.543-3.886-1.543s-2.83.514-3.886 1.543c-1.054 1.012-1.582 2.254-1.582 3.727 0 1.455.528 2.706 1.582 3.752zM32.817 27.985C31.36 29.328 29.584 30 27.486 30c-2.099 0-3.875-.672-5.331-2.015C20.718 26.624 20 24.962 20 23c0-1.962.718-3.615 2.155-4.958C23.611 16.68 25.387 16 27.485 16c2.1 0 3.876.68 5.332 2.042C34.272 19.385 35 21.038 35 23c0 1.962-.728 3.624-2.183 4.985zm-8.082-2.36c.738.69 1.654 1.034 2.75 1.034 1.097 0 2.014-.345 2.751-1.034.738-.69 1.106-1.564 1.106-2.625 0-1.06-.368-1.936-1.106-2.625-.737-.69-1.654-1.034-2.75-1.034-1.097 0-2.013.345-2.75 1.034-.719.69-1.078 1.564-1.078 2.625 0 1.06.359 1.936 1.077 2.625z" fill="#051A2E"/>
</svg>
