<svg width="92" height="38" viewBox="0 0 92 38" fill="none" xmlns="http://www.w3.org/2000/svg">
    <path d="m90.658 6.72-1.66-2.59a.264.264 0 0 0-.23-.13H84.7a.28.28 0 0 0-.28.28c0 .16.12.28.28.28h3.919l1.45 2.28-2.85 3.048-5.728-5.808a.279.279 0 0 0-.2-.08H80.461c-.09 0-.19.05-.24.14l-1.48 2.59c-.06.11-.05.24.04.329l5.75 6.098c.05.05.12.09.199.09h.02c.07 0 .13-.03.19-.09l5.688-6.098c.09-.09.1-.23.03-.34zm-9.477-2.17 5.658 5.738-2.119 2.27-5.398-5.729 1.3-2.28h.56z" fill="#2563EB" stroke="#fff"/>
    <path d="M8.1 21.51 11.22 12h4.98l-5.55 15h-5.1L0 12h4.98l3.12 9.51zm17.281 5.82c-2.2 0-4.07-.75-5.61-2.25-1.52-1.52-2.28-3.38-2.28-5.58s.76-4.05 2.28-5.55c1.52-1.52 3.39-2.28 5.61-2.28 2.18 0 4.03.76 5.55 2.28 1.54 1.5 2.31 3.35 2.31 5.55 0 2.18-.77 4.04-2.31 5.58-1.54 1.5-3.39 2.25-5.55 2.25zm-4.53-3.3c1.24 1.24 2.75 1.86 4.53 1.86 1.76 0 3.26-.62 4.5-1.86 1.22-1.22 1.83-2.73 1.83-4.53 0-1.8-.61-3.31-1.83-4.53-1.24-1.24-2.74-1.86-4.5-1.86-1.78 0-3.29.62-4.53 1.86-1.22 1.22-1.83 2.73-1.83 4.53 0 1.8.61 3.31 1.83 4.53zm32.02-12.36c1.66 0 2.98.52 3.96 1.56 1 1.02 1.5 2.44 1.5 4.26V27h-1.5v-9.51c0-1.38-.36-2.45-1.08-3.21-.72-.78-1.69-1.17-2.91-1.17-1.38 0-2.48.47-3.3 1.41-.8.94-1.2 2.31-1.2 4.11V27h-1.5v-9.51c0-1.38-.34-2.45-1.02-3.21-.68-.78-1.62-1.17-2.82-1.17-1.38 0-2.5.48-3.36 1.44-.86.96-1.29 2.32-1.29 4.08V27h-1.5V12h1.5v2.58c1.04-1.94 2.65-2.91 4.83-2.91 1.1 0 2.06.27 2.88.81.82.52 1.42 1.27 1.8 2.25.52-1 1.22-1.76 2.1-2.28.88-.52 1.85-.78 2.91-.78zm22.903 3.72V12h1.53v15h-1.53v-3.39a7.291 7.291 0 0 1-2.67 2.73c-1.12.66-2.38.99-3.78.99-2.12 0-3.95-.75-5.49-2.25-1.52-1.52-2.28-3.38-2.28-5.58s.76-4.05 2.28-5.55c1.52-1.52 3.35-2.28 5.49-2.28 1.4 0 2.66.33 3.78.99 1.12.66 2.01 1.57 2.67 2.73zm-10.86 8.64c1.24 1.24 2.75 1.86 4.53 1.86 1.76 0 3.26-.62 4.5-1.86 1.22-1.22 1.83-2.73 1.83-4.53 0-1.8-.61-3.31-1.83-4.53-1.24-1.24-2.74-1.86-4.5-1.86-1.78 0-3.29.62-4.53 1.86-1.22 1.22-1.83 2.73-1.83 4.53 0 1.8.61 3.31 1.83 4.53z" fill="#fff"/>
</svg>
