<svg width="95" height="26" viewBox="0 0 95 26" fill="none" xmlns="http://www.w3.org/2000/svg">
    <g clip-path="url(#t2vbrvwl6a)">
        <path d="m93.648 4.627-2.213-3.454A.353.353 0 0 0 91.127 1H85.7c-.2 0-.373.16-.373.373 0 .214.16.374.373.374h5.227l1.933 3.04-3.8 4.066-7.64-7.746A.372.372 0 0 0 81.154 1h-1.106a.375.375 0 0 0-.32.187L77.754 4.64a.362.362 0 0 0 .054.44l7.666 8.133c.067.067.16.12.267.12h.027c.093 0 .173-.04.253-.12l7.587-8.133a.362.362 0 0 0 .04-.453zm-12.64-2.894 7.547 7.654-2.827 3.026-7.2-7.64 1.733-3.04h.747z" fill="#2563EB" stroke="#fff"/>
        <path d="M8.1 19.51 11.22 10h4.98l-5.55 15h-5.1L0 10h4.98l3.12 9.51zm17.281 5.82c-2.2 0-4.07-.75-5.61-2.25-1.52-1.52-2.28-3.38-2.28-5.58s.76-4.05 2.28-5.55c1.52-1.52 3.39-2.28 5.61-2.28 2.18 0 4.03.76 5.55 2.28 1.54 1.5 2.31 3.35 2.31 5.55 0 2.18-.77 4.04-2.31 5.58-1.54 1.5-3.39 2.25-5.55 2.25zm-4.53-3.3c1.24 1.24 2.75 1.86 4.53 1.86 1.76 0 3.26-.62 4.5-1.86 1.22-1.22 1.83-2.73 1.83-4.53 0-1.8-.61-3.31-1.83-4.53-1.24-1.24-2.74-1.86-4.5-1.86-1.78 0-3.29.62-4.53 1.86-1.22 1.22-1.83 2.73-1.83 4.53 0 1.8.61 3.31 1.83 4.53zm32.02-12.36c1.66 0 2.98.52 3.96 1.56 1 1.02 1.5 2.44 1.5 4.26V25h-1.5v-9.51c0-1.38-.36-2.45-1.08-3.21-.72-.78-1.69-1.17-2.91-1.17-1.38 0-2.48.47-3.3 1.41-.8.94-1.2 2.31-1.2 4.11V25h-1.5v-9.51c0-1.38-.34-2.45-1.02-3.21-.68-.78-1.62-1.17-2.82-1.17-1.38 0-2.5.48-3.36 1.44-.86.96-1.29 2.32-1.29 4.08V25h-1.5V10h1.5v2.58c1.04-1.94 2.65-2.91 4.83-2.91 1.1 0 2.06.27 2.88.81.82.52 1.42 1.27 1.8 2.25.52-1 1.22-1.76 2.1-2.28.88-.52 1.85-.78 2.91-.78zm22.903 3.72V10h1.53v15h-1.53v-3.39a7.291 7.291 0 0 1-2.67 2.73c-1.12.66-2.38.99-3.78.99-2.12 0-3.95-.75-5.49-2.25-1.52-1.52-2.28-3.38-2.28-5.58s.76-4.05 2.28-5.55c1.52-1.52 3.35-2.28 5.49-2.28 1.4 0 2.66.33 3.78.99 1.12.66 2.01 1.57 2.67 2.73zm-10.86 8.64c1.24 1.24 2.75 1.86 4.53 1.86 1.76 0 3.26-.62 4.5-1.86 1.22-1.22 1.83-2.73 1.83-4.53 0-1.8-.61-3.31-1.83-4.53-1.24-1.24-2.74-1.86-4.5-1.86-1.78 0-3.29.62-4.53 1.86-1.22 1.22-1.83 2.73-1.83 4.53 0 1.8.61 3.31 1.83 4.53z" fill="#fff"/>
    </g>
    <defs>
        <clipPath id="t2vbrvwl6a">
            <path fill="#fff" d="M0 0h95v26H0z"/>
        </clipPath>
    </defs>
</svg>
