<svg width="24" height="24" viewBox="0 0 24 24" fill="none" xmlns="http://www.w3.org/2000/svg">
    <path d="M11.677 4.895a.75.75 0 0 0 0 1.5v-1.5zm7.097.75.61-.436-.61-.314v.75zM22 10.161l.547.513.063-.949-.61.436zm-9.677 10.323-.53.53 1.077-.017-.547-.513zM2 10.16l-.636-.397.106.928.53-.53zM5.226 5l.53-.53-1.166.133.636.397zm10.437 11.498a.75.75 0 0 0 1.06-1.06l-1.06 1.06zM11.677 6.395h7.097v-1.5h-7.097v1.5zm6.487-.314 3.226 4.516 1.22-.872-3.226-4.516-1.22.872zm3.289 3.567-9.678 10.323 1.095 1.026 9.677-10.323-1.094-1.026zm-8.6 10.305L2.53 9.631l-1.06 1.06 10.322 10.323 1.06-1.06zM2.636 10.56l3.226-5.161-1.272-.795-3.226 5.16 1.272.796zm2.06-5.029 10.967 10.968 1.06-1.06L5.757 4.47l-1.06 1.06z" fill="#051A2E"/>
</svg>
