<svg width="16" height="16" viewBox="0 0 16 16" fill="none" xmlns="http://www.w3.org/2000/svg">
    <path d="M7.785 1.43a1 1 0 1 0 0 2v-2zm4.731 1 .814-.581-.814-.419v1zm2.15 3.01.73.685.085-1.265-.814.58zm-6.45 6.883-.708.707 1.437-.023-.73-.684zM1.333 5.44l-.849-.53.141 1.237.707-.707zM3.483 2l.707-.707-1.555.177.848.53zm6.605 8.019a1 1 0 1 0 1.414-1.414l-1.414 1.414zM7.785 3.43h4.731v-2h-4.73v2zm3.918-.419 2.15 3.011 1.628-1.162-2.151-3.011-1.627 1.162zm2.234 1.746-6.451 6.882 1.459 1.368 6.451-6.882-1.459-1.368zm-5.015 6.859L2.041 4.734.626 6.148l6.882 6.882 1.414-1.414zM2.182 5.97l2.15-3.441-1.696-1.06-2.15 3.44L2.18 5.97zm.595-3.264 7.312 7.312 1.414-1.414-7.312-7.312-1.414 1.414z" fill="#FF334B"/>
    <path d="m1.667 5.333 2-3 7.333 7L8.666 12H8L1.667 5.333z" fill="#FF334B"/>
</svg>
