<svg width="16" height="16" viewBox="0 0 16 16" fill="none" xmlns="http://www.w3.org/2000/svg">
    <path d="M13.093 14.66H1.938a.604.604 0 0 1-.605-.604V2.904c0-.334.27-.604.605-.604h5.95a.604.604 0 1 1 0 1.208H2.543v9.947h9.947V8.102a.604.604 0 1 1 1.208 0v5.954c0 .334-.27.604-.604.604z" fill="#051A2E"/>
    <path d="m14.365 3.117-1.622-1.621a.553.553 0 0 0-.782 0L4.818 8.639a.55.55 0 0 0-.162.391v1.622c0 .305.248.553.553.553H6.83c.147 0 .286-.06.391-.162l7.144-7.144a.565.565 0 0 0 .162-.391.565.565 0 0 0-.162-.391z" fill="#051A2E"/>
</svg>
