<svg width="25" height="24" viewBox="0 0 25 24" fill="none" xmlns="http://www.w3.org/2000/svg">
    <path d="M12.177 3.645a1 1 0 1 0 0 2v-2zm7.097 1 .814-.581-.814-.419v1zM22.5 9.161l.73.684.084-1.265-.814.581zm-9.677 10.323-.707.707 1.436-.023-.73-.684zM2.5 9.16l-.848-.53.14 1.237.708-.707zM5.726 4l.707-.707-1.555.177.848.53zm10.26 11.675a1 1 0 1 0 1.415-1.414l-1.415 1.414zm-3.809-10.03h7.097v-2h-7.097v2zm6.284-.419 3.225 4.517 1.628-1.163-3.226-4.516-1.628 1.162zm3.31 3.251L12.092 18.8l1.46 1.368L23.23 9.845l-1.46-1.368zm-8.241 10.3L3.207 8.454 1.793 9.868l10.323 10.323 1.414-1.414zM3.348 9.69 6.574 4.53 4.878 3.47 1.652 8.631l1.696 1.06zm1.67-4.984 10.968 10.968 1.415-1.414L6.433 3.293 5.019 4.707z" fill="#fff"/>
</svg>
