<svg width="100" height="100" viewBox="0 0 100 100" fill="none" xmlns="http://www.w3.org/2000/svg">
    <g clip-path="url(#6mysqhpjda)">
        <path d="M0 50C0 22.386 22.386 0 50 0s50 22.386 50 50-22.386 50-50 50S0 77.614 0 50z" fill="#EAF2FF"/>
        <path d="M12.5 82.203c0-11.046 8.954-20 20-20h35c11.046 0 20 8.954 20 20v35c0 11.046-8.954 20-20 20h-35c-11.046 0-20-8.954-20-20v-35z" fill="#B4DBFF"/>
        <circle cx="50" cy="35" r="20" fill="#B4DBFF"/>
    </g>
    <defs>
        <clipPath id="6mysqhpjda">
            <path d="M0 50C0 22.386 22.386 0 50 0s50 22.386 50 50-22.386 50-50 50S0 77.614 0 50z" fill="#fff"/>
        </clipPath>
    </defs>
</svg>
