<svg width="16" height="16" viewBox="0 0 16 16" fill="none" xmlns="http://www.w3.org/2000/svg">
    <path d="M7.785 3.014a.75.75 0 0 0 0 1.5v-1.5zm4.731.75.61-.436-.61-.314v.75zm2.15 3.01.548.513.063-.949-.61.436zm-6.45 6.882-.531.53 1.077-.017-.547-.513zM1.333 6.774l-.637-.397.106.928.53-.53zm2.15-3.44.53-.53-1.166.132.636.397zm6.781 7.842a.75.75 0 0 0 1.061-1.061l-1.06 1.06zm-2.48-6.662h4.731v-1.5h-4.73v1.5zm4.121-.314 2.15 3.01 1.221-.872-2.15-3.01-1.221.872zM14.12 6.26l-6.452 6.882 1.094 1.026 6.452-6.882-1.094-1.026zm-5.374 6.865L1.864 6.244l-1.06 1.06 6.88 6.882 1.062-1.06zM1.969 7.172 4.12 3.73l-1.272-.795-2.15 3.44 1.271.796zm.985-3.308 7.311 7.312 1.061-1.061-7.312-7.312-1.06 1.06z" fill="#fff"/>
</svg>
