<svg width="24" height="24" viewBox="0 0 24 24" fill="none" xmlns="http://www.w3.org/2000/svg">
    <path d="m21.38 6.09-8.985-3.63a1.066 1.066 0 0 0-.79 0L2.62 6.09c-.4.16-.655.545-.655.975v10.15c0 .43.26.815.655.975l8.985 3.63a1.066 1.066 0 0 0 .79 0l8.985-3.63c.4-.16.655-.545.655-.975V7.065c0-.43-.26-.815-.655-.975zm-3.41 3.76-5.58 2.215a1.04 1.04 0 0 1-.39.075c-.135 0-.265-.025-.395-.075L5.76 9.915a1.051 1.051 0 1 1 .77-1.955l5.46 2 5.19-2.06a1.05 1.05 0 0 1 1.365.58 1.052 1.052 0 0 1-.58 1.365l.005.005z" fill="#051A2E"/>
</svg>
